# xmcd CD database file
#
# Track frame offsets:
#	187
#	19950
#	33647
#	50950
#	68650
#	84212
#	106527
#	133735
#	159967
#	186732
#	214147
#	232045
#
# Disc length: 3323 seconds
#
# Revision: 4
# Processed by: cddbd v1.5.2PL0 Copyright (c) Steve Scherf et al.
# Submitted via: CDex 1.70beta2
#
DISCID=a70cf90c
DTITLE=Gary Moore - Spanish Guitar - Best
DYEAR=1992
DGENRE=Hard Rock
TTITLE0=Back On The Streets
TTITLE1=Fanatical Fascists
TTITLE2=Don't Believe A Word
TTITLE3=Spanish Guitar (Phil Lynott vocal)
TTITLE4=Parisienne Walkways
TTITLE5=Put It This Way
TTITLE6=Desperado
TTITLE7=Castles
TTITLE8=Fighting Talk
TTITLE9=The Scorch
TTITLE10=Spanish Guitar (Gary Moore vocal)
TTITLE11=Spanish Guitar (Instrumental)
EXTD=YEAR: 1992
EXTT0=
EXTT1=
EXTT2=
EXTT3=
EXTT4=
EXTT5=
EXTT6=
EXTT7=
EXTT8=
EXTT9=
EXTT10=
EXTT11=
PLAYORDER=
